<?xml version="1.0" encoding="UTF-8"?>
<svg version="1.1" xmlns="http://www.w3.org/2000/svg" width="300" height="157">
<path d="M0 0 C3.96 0 7.92 0 12 0 C16.70754709 9.13021993 20.7816942 18.38286556 24.6875 27.875 C25.54191043 29.94456654 26.3976245 32.01357088 27.2558136 34.08157349 C28.02709812 35.94108316 28.79432159 37.80227577 29.5612793 39.66357422 C30.93848313 42.85734098 32.28455474 45.97294272 34 49 C36.58414426 49.96906827 36.58414426 49.96906827 39 50 C39 52.31 39 54.62 39 57 C30.42 57 21.84 57 13 57 C13 54.69 13 52.38 13 50 C15.31 50 17.62 50 20 50 C18.68 46.7 17.36 43.4 16 40 C8.41 40 0.82 40 -7 40 C-8.32 42.97 -9.64 45.94 -11 49 C-7.535 49.495 -7.535 49.495 -4 50 C-4 52.31 -4 54.62 -4 57 C-11.26 57 -18.52 57 -26 57 C-26 54.69 -26 52.38 -26 50 C-24.35 50 -22.7 50 -21 50 C-20.75451416 49.20489014 -20.50902832 48.40978027 -20.25610352 47.59057617 C-18.69701707 43.13392225 -16.81745611 38.86402542 -14.90234375 34.55078125 C-14.50801651 33.65634811 -14.11368927 32.76191498 -13.70741272 31.84037781 C-12.45331019 28.9966247 -11.19564796 26.15446535 -9.9375 23.3125 C-8.67625396 20.45961865 -7.41579023 17.60639813 -6.15687561 14.75248718 C-5.37484572 12.98003892 -4.59139534 11.20821659 -3.80638123 9.43708801 C-3.4525386 8.63582993 -3.09869598 7.83457184 -2.73413086 7.0090332 C-2.26685829 5.95363091 -2.26685829 5.95363091 -1.79014587 4.87690735 C-1.11824482 3.28087796 -0.54760943 1.64282828 0 0 Z M4 12 C1.36 18.27 -1.28 24.54 -4 31 C1.28 31 6.56 31 12 31 C10.97797355 26.91189421 9.5219663 23.13947875 7.9375 19.25 C7.65583984 18.55261719 7.37417969 17.85523438 7.08398438 17.13671875 C6.39166819 15.42352955 5.69615002 13.71163491 5 12 C4.67 12 4.34 12 4 12 Z " fill="#000000" transform="translate(146,99)"/>
<path d="M0 0 C3.31248187 -0.02888146 6.62493167 -0.04675799 9.9375 -0.0625 C10.88302734 -0.07087891 11.82855469 -0.07925781 12.80273438 -0.08789062 C14.15141602 -0.09272461 14.15141602 -0.09272461 15.52734375 -0.09765625 C16.77632446 -0.10551147 16.77632446 -0.10551147 18.05053711 -0.11352539 C20 0 20 0 21 1 C21.09326716 2.56547048 21.11745582 4.13512772 21.11352539 5.70336914 C21.11344986 6.70433121 21.11337433 7.70529327 21.11329651 8.73658752 C21.10813522 9.8251152 21.10297394 10.91364288 21.09765625 12.03515625 C21.0962413 13.14354355 21.09482635 14.25193085 21.09336853 15.39390564 C21.08775033 18.95013069 21.07519475 22.50629383 21.0625 26.0625 C21.05748734 28.46679597 21.05292403 30.87109292 21.04882812 33.27539062 C21.03777499 39.18361504 21.02101917 45.0918031 21 51 C22.98 51 24.96 51 27 51 C27 52.98 27 54.96 27 57 C21.06 57 15.12 57 9 57 C8.67 56.34 8.34 55.68 8 55 C7.21625 55.495 6.4325 55.99 5.625 56.5 C0.29714215 58.70463084 -4.73608254 59.03953536 -10.28125 57.2734375 C-15.63916278 54.81439544 -18.69463975 51.74125652 -21.25 46.375 C-23.0423888 38.30925041 -22.75394836 31.44249184 -18.59765625 24.171875 C-15.92661263 20.54082304 -13.30859993 18.39852916 -9 17 C-2.06846826 16.08179709 1.90797983 16.3447879 8 20 C8.33 15.71 8.66 11.42 9 7 C7.700625 7.020625 6.40125 7.04125 5.0625 7.0625 C3.70834367 7.08399454 2.35243917 7.07148199 1 7 C0 6 0 6 -0.0625 2.9375 C-0.041875 1.968125 -0.02125 0.99875 0 0 Z M-7 26 C-10.79442664 30.27450008 -11 34.44638911 -11 40 C-10.33146605 43.76810045 -9.49042396 46.23493863 -7.4375 49.4375 C-4.26705824 51.46983446 -1.9163817 51.68076119 1.80859375 51.52734375 C5.72375561 50.5851925 6.90444696 48.33978766 9 45 C10.73131275 39.80606175 10.74965475 34.30786901 8.875 29.125 C6.66162875 25.43604792 5.01358967 24.42147968 1 23 C-2.66184524 23 -4.02806 23.919642 -7 26 Z " fill="#000000" transform="translate(273,99)"/>
<path d="M0 0 C6.40593286 1.10690752 12.71363856 2.33945169 19 4 C18.46710967 13.21139004 16.29844664 21.943632 14.13427734 30.87988281 C13.49519726 33.5198395 12.86597968 36.16200383 12.23828125 38.8046875 C11.83650277 40.4845103 11.434179 42.1642028 11.03125 43.84375 C10.84268433 44.6332605 10.65411865 45.422771 10.45983887 46.23620605 C9.11684346 51.76631308 9.11684346 51.76631308 8 54 C9.4540625 54.185625 9.4540625 54.185625 10.9375 54.375 C11.948125 54.58125 12.95875 54.7875 14 55 C14.33 55.66 14.66 56.32 15 57 C14.0625 59.625 14.0625 59.625 13 62 C10.54093963 61.52434234 8.08279007 61.04463948 5.625 60.5625 C4.92632812 60.42779297 4.22765625 60.29308594 3.5078125 60.15429688 C-1.7734375 59.11328125 -1.7734375 59.11328125 -4 58 C-4.33 57.01 -4.66 56.02 -5 55 C-6.485 55.495 -6.485 55.495 -8 56 C-14.24116533 56.77598858 -19.08186692 56.35908298 -24.23828125 52.59375 C-29.42053663 47.90558992 -31.31589718 43.64416437 -31.6875 36.625 C-31.35824792 28.9543164 -28.71580041 23.57817818 -23.20703125 18.2734375 C-18.61915243 14.88692076 -14.24784414 14.30869256 -8.625 14.56640625 C-3.79102243 15.36487576 -0.46681512 17.53318488 3 21 C3.48108275 19.58398286 3.95978141 18.16715563 4.4375 16.75 C4.70433594 15.96109375 4.97117188 15.1721875 5.24609375 14.359375 C5.91954708 12.25178012 6.49150595 10.15246027 7 8 C4.36 7.67 1.72 7.34 -1 7 C-0.67 4.69 -0.34 2.38 0 0 Z M-15.74609375 25.3515625 C-19.77283727 30.64528763 -20.73210027 36.51568333 -20 43 C-18.76858724 46.55561715 -18.76858724 46.55561715 -16 49 C-12.93074572 50.07080327 -10.22986154 50.3351198 -7 50 C-3.08578457 47.95780064 -1.06724784 45.27843823 0.4921875 41.12890625 C1.82429253 35.54431209 2.00125098 30.08593954 -0.5 24.875 C-5.66608415 21.00043688 -10.88627349 20.55795233 -15.74609375 25.3515625 Z " fill="#000000" transform="translate(139,29)"/>
<path d="M0 0 C6.9436882 -0.48374025 13.23986896 1.30940979 19.9375 3 C21.09830078 3.28617187 22.25910156 3.57234375 23.45507812 3.8671875 C26.30525417 4.57093467 29.15337266 5.28205799 32 6 C32.125 8.875 32.125 8.875 32 12 C31.34 12.66 30.68 13.32 30 14 C27.6171875 13.7578125 27.6171875 13.7578125 24.875 13.125 C23.96492188 12.92132813 23.05484375 12.71765625 22.1171875 12.5078125 C21.41851562 12.34023437 20.71984375 12.17265625 20 12 C19.87310791 13.155 19.74621582 14.31 19.61547852 15.5 C19.08197641 19.75353317 18.18934307 23.84450049 17.15234375 28 C16.97619034 28.7211499 16.80003693 29.4422998 16.61854553 30.18530273 C16.062405 32.4579258 15.50007083 34.72896117 14.9375 37 C14.55622758 38.55328409 14.17536447 40.10666871 13.79492188 41.66015625 C12.86800331 45.44128144 11.93553207 49.22099718 11 53 C13.39081541 53.5046084 15.78273515 54.0022729 18.17578125 54.49609375 C18.84774536 54.63865601 19.51970947 54.78121826 20.21203613 54.92810059 C25.63980905 56.03949382 29.65136111 56.49060428 35 55 C38.2595784 51.40610587 39.67711343 47.630103 41 43 C43.31 43.33 45.62 43.66 48 44 C46.77374375 52.13657088 45.09100397 60.04374996 43 68 C32.72902214 66.58391058 22.74209382 64.11434921 12.6875 61.6315918 C9.84762438 60.93074402 7.0059997 60.23735748 4.1640625 59.54492188 C2.35666507 59.10199385 0.54936949 58.65864997 -1.2578125 58.21484375 C-2.10667023 58.00754135 -2.95552795 57.80023895 -3.83010864 57.58665466 C-9.76813449 56.11593275 -9.76813449 56.11593275 -12 55 C-12 53.02 -12 51.04 -12 49 C-8.40900664 47.75696384 -5.68331043 48.31883985 -2 49 C2.22498088 35.55461968 5.02760503 21.76296308 8 8 C5.36 7.67 2.72 7.34 0 7 C-0.93423645 3.98968256 -1.04449911 3.13349732 0 0 Z " fill="#000000" transform="translate(12,0)"/>
<path d="M0 0 C5.7809725 0.63065155 11.3443706 1.65155132 17 3 C16.50350378 9.82682309 15.07806283 16.20697548 13.28417969 22.79467773 C12.08268706 27.49294686 11.82281559 31.17973964 13 36 C16.13871188 37.56935594 18.53855822 37.35201103 22 37 C27.19529765 33.05189154 28.35386218 28.74682498 29.8125 22.6875 C30.02841797 21.85154297 30.24433594 21.01558594 30.46679688 20.15429688 C30.99330313 18.10677256 31.49879728 16.05386477 32 14 C29.69 13.67 27.38 13.34 25 13 C25.33 10.69 25.66 8.38 26 6 C32.1112924 7.0388092 38.07704464 8.15730278 44 10 C43.46512323 17.39489968 42.15463123 24.41978269 40.4375 31.625 C40.08655273 33.13126953 40.08655273 33.13126953 39.72851562 34.66796875 C39.15792701 37.11334854 38.58168567 39.55724069 38 42 C39.65 42.66 41.3 43.32 43 44 C42.67 45.98 42.34 47.96 42 50 C36.2190275 49.36934845 30.6556294 48.34844868 25 47 C25 45.68 25 44.36 25 43 C24.01 43.495 24.01 43.495 23 44 C17.48534364 45.83821879 12.97168762 45.71428183 7.75 43.3125 C4.264788 41.32977113 1.89693373 39.63578965 0 36 C-1.6437828 27.4728767 1.14013457 14.71973085 5 7 C2.03 6.505 2.03 6.505 -1 6 C-0.67 4.02 -0.34 2.04 0 0 Z " fill="#000000" transform="translate(62,29)"/>
<path d="M0 0 C4.18487214 2.6969176 6.33536453 5.28353285 8 10 C7.88245963 13.46744099 7.6242811 15.92484922 5.875 18.9375 C2.82531829 20.66565297 0.41481611 20.42685201 -3 20 C-5 18.375 -5 18.375 -6 16 C-5.86321065 12.64866084 -5.60270411 10.72324494 -3.4375 8.125 C-2.963125 7.75375 -2.48875 7.3825 -2 7 C-5.70881214 4.52745857 -9.69353488 4.30651357 -14 5 C-18.08317887 7.39664847 -19.56958353 9.56950649 -21 14 C-21.31397439 16.98818274 -21.31397439 16.98818274 -21.25 20.0625 C-21.25515625 21.08472656 -21.2603125 22.10695313 -21.265625 23.16015625 C-21.0008378 25.99104293 -20.51752418 27.62308937 -19 30 C-15.56322682 32.54575791 -12.14892325 32.43672876 -8 32 C-4.52010111 29.83472958 -2.50244436 27.82440382 -1 24 C0.98 24.33 2.96 24.66 5 25 C4.46252091 29.56857227 2.93335989 32.46492526 0 36 C-4.0295556 39.10824843 -7.79027471 40.33432494 -12.875 40.0625 C-19.98689182 38.95571868 -26.69952104 36.29260365 -31.0625 30.375 C-34.5415372 24.31474165 -35.1489398 18.33274888 -33.3515625 11.5546875 C-30.74413663 4.9804086 -26.68277349 1.18975721 -20.6875 -2.375 C-13.43801045 -4.0609278 -6.60998142 -3.43778052 0 0 Z " fill="#000000" transform="translate(217,65)"/>
<path d="M0 0 C2.52441684 3.55288296 3.00376903 7.05792775 2.6875 11.375 C1.1875 14 1.1875 14 -1.3125 15.375 C-4.67764555 15.20094075 -7.28892995 14.88678502 -10.3125 13.375 C-10.59551994 8.46932112 -10.47742205 6.12971067 -7.3125 2.375 C-9.06241334 2.34784617 -10.81244945 2.32853449 -12.5625 2.3125 C-13.53703125 2.30089844 -14.5115625 2.28929688 -15.515625 2.27734375 C-19.03099464 2.3387851 -19.03099464 2.3387851 -22.3125 3.375 C-25.41387045 8.84684468 -24.94001604 15.29407077 -24.3125 21.375 C-23.10522232 24.82599185 -21.70771956 27.67739022 -18.3125 29.375 C-16.83581663 29.4702699 -15.35474543 29.50485959 -13.875 29.5 C-13.09253906 29.50257813 -12.31007812 29.50515625 -11.50390625 29.5078125 C-9.13354653 29.45882548 -9.13354653 29.45882548 -6.3125 28.375 C-5.28968482 26.27780128 -5.28968482 26.27780128 -4.625 23.8125 C-4.37363281 22.98621094 -4.12226563 22.15992188 -3.86328125 21.30859375 C-3.68152344 20.67050781 -3.49976563 20.03242188 -3.3125 19.375 C-1.3325 19.375 0.6475 19.375 2.6875 19.375 C2.5236264 26.0789198 1.59651189 29.69431425 -3.3125 34.375 C-8.87394554 38.16570226 -17.8596666 37.27670598 -24.3125 36.375 C-29.54606349 34.50685135 -33.02037774 31.42891027 -35.875 26.6875 C-38.48999858 20.42589789 -38.10908891 13.93246964 -36.125 7.5625 C-32.80930236 1.73144552 -29.65757762 -2.16466378 -23.3125 -4.625 C-14.74963887 -6.90842963 -7.13800109 -5.01589266 0 0 Z " fill="#000000" transform="translate(221.3125,120.625)"/>
<path d="M0 0 C6.30367803 0.58367389 11.98660063 2.04071619 18 4 C17.39069801 10.84239134 16.10760021 17.28048993 14.4375 23.9375 C13.97593166 25.80030337 13.51620056 27.66356325 13.05859375 29.52734375 C12.85548584 30.33937256 12.65237793 31.15140137 12.44311523 31.98803711 C11.92830481 33.98216823 11.92830481 33.98216823 12 36 C13.65 36.66 15.3 37.32 17 38 C16.67 39.98 16.34 41.96 16 44 C7.31481952 43.59128562 -0.69293749 41.38135792 -9 39 C-8.67 36.69 -8.34 34.38 -8 32 C-5.36 32 -2.72 32 0 32 C1.98 24.08 3.96 16.16 6 8 C3.69 7.34 1.38 6.68 -1 6 C-0.67 4.02 -0.34 2.04 0 0 Z " fill="#000000" transform="translate(163,53)"/>
<path d="M0 0 C5.94 0 11.88 0 18 0 C18.33 10.56 18.66 21.12 19 32 C20.98 32.33 22.96 32.66 25 33 C25 34.98 25 36.96 25 39 C16.42 39 7.84 39 -1 39 C-1 37.02 -1 35.04 -1 33 C2.465 32.505 2.465 32.505 6 32 C6 23.75 6 15.5 6 7 C3.03 6.505 3.03 6.505 0 6 C0 4.02 0 2.04 0 0 Z " fill="#000000" transform="translate(226,117)"/>
<path d="M0 0 C2.5 1.5625 2.5 1.5625 4 4 C4.0625 7.5625 4.0625 7.5625 3 11 C0.8125 13.0625 0.8125 13.0625 -2 14 C-5.53164296 13.23827309 -7.43871412 12.56128588 -10 10 C-10.54587156 3.99541284 -10.54587156 3.99541284 -8.9375 1.0625 C-5.8347167 -0.63902633 -3.46230815 -0.42519574 0 0 Z " fill="#000000" transform="translate(241,98)"/>
<path d="M0 0 C1.875 1.1875 1.875 1.1875 3 3 C3.53852618 6.61581862 3.42236225 8.34111489 1.4375 11.4375 C-1 13 -1 13 -4.5625 13 C-8 12 -8 12 -10 10.3125 C-11.38906225 7.10029355 -11.05521374 5.3063364 -10 2 C-6.88033777 -1.58183441 -4.3851177 -1.30620527 0 0 Z " fill="#000000" transform="translate(182,38)"/>
</svg>
